<?xml version="1.0" standalone="no"?><!DOCTYPE svg PUBLIC "-//W3C//DTD SVG 1.1//EN" "http://www.w3.org/Graphics/SVG/1.1/DTD/svg11.dtd"><svg t="1673259104427" class="icon" viewBox="0 0 1024 1024" version="1.1" xmlns="http://www.w3.org/2000/svg" p-id="5248" xmlns:xlink="http://www.w3.org/1999/xlink" width="48" height="48"><path d="M556.8 94.83c-247 0-448 201-448 448s201 448 448 448 448-201 448-448-200.97-448-448-448z m145.36 387.61l-125.88 72.68v65.62a19.48 19.48 0 1 1-39 0v-43.13l-45.48 26.26a19.48 19.48 0 0 1-19.48-33.75l65-37.5V270.13a19.48 19.48 0 1 1 39 0v240l106.36-61.43a19.48 19.48 0 1 1 19.48 33.74z" fill="#22B573" p-id="5249"></path></svg>