<?xml version="1.0" standalone="no"?><!DOCTYPE svg PUBLIC "-//W3C//DTD SVG 1.1//EN" "http://www.w3.org/Graphics/SVG/1.1/DTD/svg11.dtd"><svg t="1673260976767" class="icon" viewBox="0 0 1024 1024" version="1.1" xmlns="http://www.w3.org/2000/svg" p-id="21302" xmlns:xlink="http://www.w3.org/1999/xlink" width="48" height="48"><path d="M683.3 376.9C485.9 333.6 647.8 59.7 377.1 82.4s-527.2 645.8-46.8 791.7 728-414.9 353-497.2z" fill="#464BD8" p-id="21303"></path><path d="M302.3 275.5l-88.9 390.1V275.5z" fill="#2E2E42" p-id="21304"></path><path d="M320.7 275.5l-95.1 417.3-12.2-2.8v-24.4l88.9-390.1z" fill="#2E2E42" p-id="21305"></path><path d="M339.2 275.5l-96.1 421.3-17.5-4 95.1-417.3z" fill="#2D2D41" p-id="21306"></path><path d="M357.6 275.5l-97 425.3-17.5-4 96.1-421.3z" fill="#2D2D40" p-id="21307"></path><path d="M376 275.5l-97.9 429.3-17.5-4 97-425.3z" fill="#2C2C3F" p-id="21308"></path><path d="M394.4 275.5l-98.8 433.3-17.5-4L376 275.5z" fill="#2B2B3E" p-id="21309"></path><path d="M412.8 275.5l-99.7 437.3-17.5-4 98.8-433.3z" fill="#2A2A3D" p-id="21310"></path><path d="M431.2 275.5L330.6 716.8l-17.5-4 99.7-437.3z" fill="#2A2A3C" p-id="21311"></path><path d="M449.6 275.5L348.1 720.8l-17.5-4 100.6-441.3z" fill="#29293B" p-id="21312"></path><path d="M468 275.5L365.6 724.8l-17.5-4 101.5-445.3z" fill="#28283A" p-id="21313"></path><path d="M484.3 275.5l2 0.5-103.2 452.8-17.5-4L468 275.5z" fill="#282839" p-id="21314"></path><path d="M383.092821 728.671984l103.274375-452.771204 17.549272 4.002883L400.642093 732.674867z" fill="#272738" p-id="21315"></path><path d="M400.600621 732.665763l103.274375-452.771204 17.549272 4.002883L418.149892 736.668646z" fill="#262637" p-id="21316"></path><path d="M418.108421 736.659542l103.274375-452.771204 17.549271 4.002883L435.657692 740.662425z" fill="#252536" p-id="21317"></path><path d="M435.617195 740.652544l103.274375-452.771205 17.549272 4.002883L453.166467 744.655426z" fill="#252534" p-id="21318"></path><path d="M453.124995 744.646323l103.274375-452.771205 17.549272 4.002883L470.674266 748.649205z" fill="#242433" p-id="21319"></path><path d="M470.535299 748.617864l103.274375-452.771205 17.549271 4.002883L488.08457 752.620746z" fill="#232332" p-id="21320"></path><path d="M488.043296 752.60989l103.274375-452.771204 17.549271 4.002882L505.592567 756.612773z" fill="#222231" p-id="21321"></path><path d="M505.551095 756.603669l103.274375-452.771204 17.549272 4.002883L523.100367 760.606552z" fill="#222230" p-id="21322"></path><path d="M523.058895 760.597448l103.274375-452.771204 17.549272 4.002883L540.608167 764.600331z" fill="#21212F" p-id="21323"></path><path d="M540.56767 764.59045l103.274375-452.771205 17.549271 4.002883L558.116941 768.593332z" fill="#20202E" p-id="21324"></path><path d="M661.3 315.9l16 3.7v6.9L575.6 772.7l-17.5-4z" fill="#20202D" p-id="21325"></path><path d="M677.3 407.2l-84.2 369.5-17.5-4 101.7-446.2z" fill="#1F1F2C" p-id="21326"></path><path d="M677.3 487.9l-66.7 292.7-17.5-3.9 84.2-369.5z" fill="#1E1E2B" p-id="21327"></path><path d="M677.3 568.6l-48.4 212.3h-17.4l-0.9-0.3 66.7-292.7z" fill="#1D1D2A" p-id="21328"></path><path d="M677.3 649.3l-30 131.6h-18.4l48.4-212.3z" fill="#1D1D29" p-id="21329"></path><path d="M677.3 730l-11.5 50.9h-18.5l30-131.6z" fill="#1C1C28" p-id="21330"></path><path d="M665.8 780.9l11.5-50.9v50.9z" fill="#1C1C28" p-id="21331"></path><path d="M248 633c-9 9.9-12.9 20.1-10.6 27.5 2.4 7.8 11.6 14.3 25.3 17.4L617 758.7c13.7 3.1 24.8 1.2 30.3-4.8 5.3-5.8 6.2-16.5 2.4-29.3l-94.5-245.3c-1.2-2.8-0.1-5.6 0.5-8.6l33.7-147.9L489.2 300l-33.7 147.9c-0.7 3-4.6 5.1-6.8 7.1L248 633z" fill="#FFFFFF" p-id="21332"></path><path d="M647.3 754c5.3-5.8 6.2-16.5 2.4-29.3l-50.5-131.1c-24.3 4.1-52.9 5.1-101.9-41.7-34.6-33.1-86.2-35.1-122.5-31.3L248 633c-9 9.9-12.9 20.1-10.6 27.5 2.4 7.8 11.6 14.3 25.3 17.4L617 758.7c13.7 3.2 24.8 1.2 30.3-4.7z" fill="#2AEFC8" p-id="21333"></path><path d="M349.4 655.2c-9.5-2.2-15.5-11.7-13.4-21.3 2.2-9.5 11.7-15.5 21.3-13.4 9.5 2.2 15.5 11.7 13.4 21.3-2.2 9.5-11.8 15.5-21.3 13.4z m6.4-28.3c-6.1-1.4-12.1 2.4-13.5 8.5-1.4 6.1 2.4 12.1 8.5 13.5 6.1 1.4 12.1-2.4 13.5-8.5 1.4-6.1-2.4-12.2-8.5-13.5z m0 0" fill="#29293B" p-id="21334"></path><path d="M676.7 216.9c-20.9-4.8-34.1-25.7-29.3-46.6 4.8-20.9 25.7-34.1 46.6-29.3 20.9 4.8 34.1 25.7 29.3 46.6-4.8 20.9-25.7 34.1-46.6 29.3z" fill="#29293B" p-id="21335"></path><path d="M690.8 154.9c-13.3-3-26.5 5.3-29.6 18.6-3 13.3 5.3 26.5 18.6 29.6 13.3 3 26.5-5.3 29.6-18.6 3.1-13.4-5.3-26.6-18.6-29.6z" fill="#514DDF" p-id="21336"></path><path d="M542.4 225.4c-13.3-3-21.6-16.3-18.6-29.6s16.3-21.6 29.6-18.6 21.6 16.3 18.6 29.6-16.3 21.6-29.6 18.6z m9-39.4c-8.4-1.9-16.8 3.4-18.8 11.8-1.9 8.4 3.4 16.8 11.8 18.8 8.4 1.9 16.8-3.4 18.8-11.8 1.9-8.4-3.4-16.8-11.8-18.8z m0 0" fill="#29293B" p-id="21337"></path><path d="M602.5 259.3c-9-2-14.6-11-12.5-19.9 2-9 11-14.6 19.9-12.5 9 2 14.6 11 12.5 19.9-2 8.9-11 14.6-19.9 12.5z m6-26.5c-5.7-1.3-11.4 2.3-12.6 8-1.3 5.7 2.3 11.4 8 12.6 5.7 1.3 11.4-2.3 12.6-7.9 1.3-5.8-2.3-11.4-8-12.7z m0 0" fill="#29293B" p-id="21338"></path><path d="M471.4 497.1c-9.9-2.3-16.1-12.2-13.9-22.1 2.3-9.9 12.2-16.1 22.1-13.9 9.9 2.3 16.1 12.2 13.9 22.1-2.3 9.9-12.2 16.1-22.1 13.9z" fill="#29293B" p-id="21339"></path><path d="M478.1 467.7c-6.3-1.4-12.6 2.5-14 8.8-1.4 6.3 2.5 12.6 8.8 14 6.3 1.4 12.6-2.5 14-8.8 1.5-6.3-2.5-12.6-8.8-14z" fill="#514DDF" p-id="21340"></path><path d="M552.9 712.9c-12.5-2.9-20.4-15.3-17.5-27.9 2.9-12.5 15.4-20.4 27.9-17.5 12.5 2.9 20.4 15.4 17.5 27.9-2.9 12.5-15.4 20.3-27.9 17.5z m8.1-35.8c-7.2-1.6-14.4 2.9-16.1 10.1-1.6 7.2 2.9 14.4 10.1 16.1 7.2 1.6 14.4-2.9 16.1-10.1 1.7-7.2-2.9-14.4-10.1-16.1z m0 0" fill="#29293B" p-id="21341"></path><path d="M452.8 632.8c-12.9-2.9-21-15.8-18.1-28.7 2.9-12.9 15.8-21 28.7-18.1 12.9 2.9 21 15.8 18 28.7-2.8 12.9-15.7 21-28.6 18.1z" fill="#29293B" p-id="21342"></path><path d="M460.9 597.6c-6.5-1.5-13 2.6-14.4 9.1-1.5 6.5 2.6 13 9.1 14.4 6.5 1.5 13-2.6 14.4-9.1 1.4-6.4-2.7-12.9-9.1-14.4z" fill="#514DDF" p-id="21343"></path><path d="M511.3 531.3l-0.4 1.5v-1.5z" fill="#2B2B3E" p-id="21344"></path><path d="M511.9 531.3l-1 4v-2.5l0.4-1.5z" fill="#2A2A3D" p-id="21345"></path><path d="M512.4 531.3l-1.5 6.6v-2.6l1-4z" fill="#2A2A3C" p-id="21346"></path><path d="M513 531.3l-1.8 8.1h-0.3v-1.5l1.5-6.6z" fill="#29293B" p-id="21347"></path><path d="M513.6 531.3l-1.8 8.1h-0.6l1.8-8.1z" fill="#28283A" p-id="21348"></path><path d="M514.2 531.3l-1.9 8.1h-0.5l1.8-8.1z" fill="#282839" p-id="21349"></path><path d="M514.7 531.3l-1.8 8.1h-0.6l1.9-8.1z" fill="#272738" p-id="21350"></path><path d="M515.3 531.3l-1.8 8.1h-0.6l1.8-8.1z" fill="#262637" p-id="21351"></path><path d="M515.9 531.3l-1.8 8.1h-0.6l1.8-8.1z" fill="#252536" p-id="21352"></path><path d="M516.5 531.3l-1.9 8.1h-0.5l1.8-8.1z" fill="#252534" p-id="21353"></path><path d="M517.1 531.3l-1.9 8.1h-0.6l1.9-8.1z" fill="#242433" p-id="21354"></path><path d="M517.6 531.3l-1.8 8.1h-0.6l1.9-8.1z" fill="#232332" p-id="21355"></path><path d="M518.2 531.3l-1.8 8.1h-0.6l1.8-8.1z" fill="#222231" p-id="21356"></path><path d="M518.8 531.3l-1.9 8.1h-0.5l1.8-8.1z" fill="#222230" p-id="21357"></path><path d="M519 532.9l-1.5 6.5h-0.6l1.9-8.1h0.2z" fill="#21212F" p-id="21358"></path><path d="M519 535.4l-0.9 4h-0.6l1.5-6.5z" fill="#20202E" p-id="21359"></path><path d="M519 537.9l-0.3 1.5h-0.6l0.9-4z" fill="#20202D" p-id="21360"></path><path d="M518.7 539.4l0.3-1.5v1.5z" fill="#1F1F2C" p-id="21361"></path><path d="M509.3 527.3l-2.3 10.4v-10.4z" fill="#2E2E42" p-id="21362"></path><path d="M509.9 527.3l-2.9 12.9v-2.5l2.3-10.4z" fill="#2E2E42" p-id="21363"></path><path d="M510.5 527.3l-3.5 15.4v-2.5l2.9-12.9z" fill="#2D2D41" p-id="21364"></path><path d="M511 527.3l-3.6 16.1-0.4-0.1v-0.6l3.5-15.4z" fill="#2D2D40" p-id="21365"></path><path d="M511.6 527.3l-3.6 16.1h-0.6l3.6-16.1z" fill="#2C2C3F" p-id="21366"></path><path d="M512.2 527.3l-3.7 16.1h-0.5l3.6-16.1z" fill="#2B2B3E" p-id="21367"></path><path d="M512.8 527.3l-3.7 16.1h-0.6l3.7-16.1z" fill="#2A2A3D" p-id="21368"></path><path d="M513.4 527.3l-3.7 16.1h-0.6l3.7-16.1z" fill="#2A2A3C" p-id="21369"></path><path d="M513.9 527.3l-3.6 16.1h-0.6l3.7-16.1z" fill="#29293B" p-id="21370"></path><path d="M514.5 527.3l-3.7 16.1h-0.5l3.6-16.1z" fill="#28283A" p-id="21371"></path><path d="M515.1 527.3l-3.7 16.1h-0.6l3.7-16.1z" fill="#282839" p-id="21372"></path><path d="M515.7 527.3l-3.7 16.1h-0.6l3.7-16.1z" fill="#272738" p-id="21373"></path><path d="M516.2 527.3l-3.6 16.1h-0.6l3.7-16.1z" fill="#262637" p-id="21374"></path><path d="M516.8 527.3l-3.6 16.1h-0.6l3.6-16.1z" fill="#252536" p-id="21375"></path><path d="M517.4 527.3l-3.7 16.1h-0.5l3.6-16.1z" fill="#252534" p-id="21376"></path><path d="M518 527.3l-3.7 16.1h-0.6l3.7-16.1z" fill="#242433" p-id="21377"></path><path d="M518.5 527.3l-3.6 16.1h-0.6l3.7-16.1z" fill="#232332" p-id="21378"></path><path d="M519.1 527.3l-3.6 16.1h-0.6l3.6-16.1z" fill="#222231" p-id="21379"></path><path d="M519.7 527.3l-3.7 16.1h-0.5l3.6-16.1z" fill="#222230" p-id="21380"></path><path d="M520.3 527.3l-3.7 16.1h-0.6l3.7-16.1z" fill="#21212F" p-id="21381"></path><path d="M520.8 527.3l-3.6 16.1h-0.6l3.7-16.1z" fill="#20202E" p-id="21382"></path><path d="M521.4 527.3l-3.6 16.1h-0.6l3.6-16.1z" fill="#20202D" p-id="21383"></path><path d="M522 527.3l-3.7 16.1h-0.5l3.6-16.1z" fill="#1F1F2C" p-id="21384"></path><path d="M522.6 527.3l-3.7 16.1h-0.6l3.7-16.1z" fill="#1E1E2B" p-id="21385"></path><path d="M522.6 527.3l0.4 0.1v0.6l-3.5 15.4h-0.6l3.7-16.1z" fill="#1D1D2A" p-id="21386"></path><path d="M523 530.5l-2.9 12.9h-0.6L523 528z" fill="#1D1D29" p-id="21387"></path><path d="M523 533.1l-2.4 10.3h-0.5l2.9-12.9z" fill="#1C1C28" p-id="21388"></path><path d="M520.6 543.4l2.4-10.3v10.3z" fill="#1C1C28" p-id="21389"></path><path d="M557.5 330.8L537.1 420v-89.2z" fill="#2E2E42" p-id="21390"></path><path d="M558.1 330.8l-21 91.8V420l20.4-89.2z" fill="#2E2E42" p-id="21391"></path><path d="M558.7 330.8l-21.6 94.3v-2.5l21-91.8z" fill="#2D2D41" p-id="21392"></path><path d="M559.2 330.8l-21.6 94.9-0.5-0.1v-0.5l21.6-94.3z" fill="#2D2D40" p-id="21393"></path><path d="M559.8 330.8l-21.6 95h-0.6v-0.1l21.6-94.9z" fill="#2C2C3F" p-id="21394"></path><path d="M560.4 330.8l-21.7 95h-0.5l21.6-95z" fill="#2B2B3E" p-id="21395"></path><path d="M561 330.8l-21.7 95h-0.6l21.7-95z" fill="#2A2A3D" p-id="21396"></path><path d="M561.6 330.8l-21.7 95h-0.6l21.7-95z" fill="#2A2A3C" p-id="21397"></path><path d="M562.1 330.8l-21.6 95h-0.6l21.7-95z" fill="#29293B" p-id="21398"></path><path d="M562.7 330.8l-21.6 95h-0.6l21.6-95z" fill="#28283A" p-id="21399"></path><path d="M563.3 330.8l-21.7 95h-0.5l21.6-95z" fill="#282839" p-id="21400"></path><path d="M563.9 330.8l-21.7 95h-0.6l21.7-95z" fill="#272738" p-id="21401"></path><path d="M564.5 330.8l-21.7 95h-0.6l21.7-95z" fill="#262637" p-id="21402"></path><path d="M565 330.8l-21.6 95h-0.6l21.7-95z" fill="#252536" p-id="21403"></path><path d="M565.6 330.8l-21.6 95h-0.6l21.6-95z" fill="#252534" p-id="21404"></path><path d="M566.2 330.8l-21.7 95h-0.5l21.6-95z" fill="#242433" p-id="21405"></path><path d="M566.8 330.8l-21.7 95h-0.6l21.7-95z" fill="#232332" p-id="21406"></path><path d="M567.3 330.8l-21.6 95h-0.6l21.7-95z" fill="#222231" p-id="21407"></path><path d="M567.9 330.8l-21.6 95h-0.6l21.6-95z" fill="#222230" p-id="21408"></path><path d="M568.5 330.8l-21.6 95h-0.6l21.6-95z" fill="#21212F" p-id="21409"></path><path d="M569.1 330.8l-21.7 95h-0.5l21.6-95z" fill="#20202E" p-id="21410"></path><path d="M569.7 330.8l-21.7 95h-0.6l21.7-95z" fill="#20202D" p-id="21411"></path><path d="M570.2 330.8l-21.6 95h-0.6l21.7-95z" fill="#1F1F2C" p-id="21412"></path><path d="M570.8 330.8l-21.6 95h-0.6l21.6-95z" fill="#1E1E2B" p-id="21413"></path><path d="M570.8 330.8l0.5 0.1v0.6l-21.5 94.3h-0.6z" fill="#1D1D2A" p-id="21414"></path><path d="M571.3 334l-21 91.8h-0.5l21.5-94.3z" fill="#1D1D29" p-id="21415"></path><path d="M571.3 336.6l-20.4 89.2h-0.6l21-91.8z" fill="#1C1C28" p-id="21416"></path><path d="M550.9 425.8l20.4-89.2v89.2z" fill="#1C1C28" p-id="21417"></path><path d="M533 438.3l-4 17.5v-17.5z" fill="#2E2E42" p-id="21418"></path><path d="M533.6 438.3l-4.6 20.1v-2.6l4-17.5z" fill="#2E2E42" p-id="21419"></path><path d="M534.1 438.3l-5.1 22.6v-2.5l4.6-20.1z" fill="#2D2D41" p-id="21420"></path><path d="M534.7 438.3l-5.3 23.3-0.4-0.1v-0.6l5.1-22.6z" fill="#2D2D40" p-id="21421"></path><path d="M535.3 438.3l-5.3 23.3h-0.6l5.3-23.3z" fill="#2C2C3F" p-id="21422"></path><path d="M535.9 438.3l-5.3 23.3h-0.6l5.3-23.3z" fill="#2B2B3E" p-id="21423"></path><path d="M536.5 438.3l-5.4 23.3h-0.5l5.3-23.3z" fill="#2A2A3D" p-id="21424"></path><path d="M537 438.3l-5.3 23.3h-0.6l5.4-23.3z" fill="#2A2A3C" p-id="21425"></path><path d="M537.6 438.3l-5.3 23.3h-0.6l5.3-23.3z" fill="#29293B" p-id="21426"></path><path d="M538.2 438.3l-5.3 23.3h-0.6l5.3-23.3z" fill="#28283A" p-id="21427"></path><path d="M538.8 438.3l-5.3 23.3h-0.6l5.3-23.3z" fill="#282839" p-id="21428"></path><path d="M539.4 438.3l-5.4 23.3h-0.5l5.3-23.3z" fill="#272738" p-id="21429"></path><path d="M539.9 438.3l-5.3 23.3h-0.6l5.4-23.3z" fill="#262637" p-id="21430"></path><path d="M540.5 438.3l-5.3 23.3h-0.6l5.3-23.3z" fill="#252536" p-id="21431"></path><path d="M541.1 438.3l-5.3 23.3h-0.6l5.3-23.3z" fill="#252534" p-id="21432"></path><path d="M541.7 438.3l-5.3 23.3h-0.6l5.3-23.3z" fill="#242433" p-id="21433"></path><path d="M542.3 438.3l-5.4 23.3h-0.5l5.3-23.3z" fill="#232332" p-id="21434"></path><path d="M542.8 438.3l-5.3 23.3h-0.6l5.4-23.3z" fill="#222231" p-id="21435"></path><path d="M543.4 438.3l-5.3 23.3h-0.6l5.3-23.3z" fill="#222230" p-id="21436"></path><path d="M544 438.3l-5.3 23.3h-0.6l5.3-23.3z" fill="#21212F" p-id="21437"></path><path d="M544.6 438.3l-5.3 23.3h-0.6l5.3-23.3z" fill="#20202E" p-id="21438"></path><path d="M545.2 438.3l-5.4 23.3h-0.5l5.3-23.3z" fill="#20202D" p-id="21439"></path><path d="M545.7 438.3l-5.3 23.3h-0.6l5.4-23.3z" fill="#1F1F2C" p-id="21440"></path><path d="M546.3 438.3l-5.3 23.3h-0.6l5.3-23.3z" fill="#1E1E2B" p-id="21441"></path><path d="M546.3 438.3l0.4 0.1v0.5l-5.1 22.7h-0.6z" fill="#1D1D2A" p-id="21442"></path><path d="M546.7 441.5l-4.5 20.1h-0.6l5.1-22.7z" fill="#1D1D29" p-id="21443"></path><path d="M546.7 444l-4 17.6h-0.5l4.5-20.1z" fill="#1C1C28" p-id="21444"></path><path d="M542.7 461.6l4-17.6v17.6z" fill="#1C1C28" p-id="21445"></path></svg>